<svg xmlns="http://www.w3.org/2000/svg" width="1200" height="800" viewBox="0 0 1200 800">
  <rect width="1200" height="800" fill="#1a1a2e"/>
  <rect x="50" y="50" width="1100" height="700" rx="8" fill="#16213e"/>
  <text x="600" y="120" text-anchor="middle" fill="#e2e8f0" font-family="sans-serif" font-size="36" font-weight="bold">Research Dashboard</text>
  <text x="600" y="160" text-anchor="middle" fill="#60a5fa" font-family="monospace" font-size="14">artifact-release-42 | snapshot-cn-20260620 | Demo</text>
  <rect x="80" y="200" width="240" height="120" rx="8" fill="#1e3a5f"/>
  <text x="200" y="240" text-anchor="middle" fill="#94a3b8" font-family="sans-serif" font-size="14">Total Return</text>
  <text x="200" y="290" text-anchor="middle" fill="#22c55e" font-family="monospace" font-size="36" font-weight="bold">12.00%</text>
  <text x="200" y="310" text-anchor="middle" fill="#64748b" font-family="monospace" font-size="12">Ann: 18.00%</text>
  <rect x="340" y="200" width="240" height="120" rx="8" fill="#1e3a5f"/>
  <text x="460" y="240" text-anchor="middle" fill="#94a3b8" font-family="sans-serif" font-size="14">Sharpe Ratio</text>
  <text x="460" y="290" text-anchor="middle" fill="#3b82f6" font-family="monospace" font-size="36" font-weight="bold">1.42</text>
  <rect x="600" y="200" width="240" height="120" rx="8" fill="#1e3a5f"/>
  <text x="720" y="240" text-anchor="middle" fill="#94a3b8" font-family="sans-serif" font-size="14">Max Drawdown</text>
  <text x="720" y="290" text-anchor="middle" fill="#f97316" font-family="monospace" font-size="36" font-weight="bold">-8.00%</text>
  <rect x="860" y="200" width="240" height="120" rx="8" fill="#1e3a5f"/>
  <text x="980" y="240" text-anchor="middle" fill="#94a3b8" font-family="sans-serif" font-size="14">Volatility</text>
  <text x="980" y="290" text-anchor="middle" fill="#a855f7" font-family="monospace" font-size="36" font-weight="bold">16.00%</text>
  <rect x="80" y="350" width="1020" height="350" rx="8" fill="#0f172a"/>
  <text x="590" y="550" text-anchor="middle" fill="#334155" font-family="sans-serif" font-size="48">📈 Equity Curve</text>
  <text x="590" y="600" text-anchor="middle" fill="#475569" font-family="sans-serif" font-size="18">Performance chart placeholder</text>
</svg>
