<svg xmlns="http://www.w3.org/2000/svg" width="960" height="540" viewBox="0 0 960 540">
  <rect width="960" height="540" fill="#0f172a" rx="8"/>
  <!-- Header -->
  <rect x="0" y="0" width="960" height="56" fill="#1e293b"/>
  <text x="24" y="36" font-family="Inter, system-ui, sans-serif" font-size="18" font-weight="600" fill="#f8fafc">AlphaEngine</text>
  <text x="840" y="36" font-family="Inter, system-ui, sans-serif" font-size="13" fill="#94a3b8">System Home</text>
  <!-- Mode Badge -->
  <rect x="24" y="80" width="120" height="32" rx="16" fill="#22c55e" opacity="0.15"/>
  <text x="48" y="100" font-family="Inter, system-ui, sans-serif" font-size="13" font-weight="600" fill="#22c55e">DEMO MODE</text>
  <!-- Data Freshness Card -->
  <rect x="24" y="130" width="290" height="160" rx="8" fill="#1e293b"/>
  <text x="44" y="162" font-family="Inter, system-ui, sans-serif" font-size="14" font-weight="600" fill="#f8fafc">Data Freshness</text>
  <text x="44" y="196" font-family="Inter, system-ui, sans-serif" font-size="32" font-weight="700" fill="#38bdf8">98.5%</text>
  <text x="44" y="220" font-family="Inter, system-ui, sans-serif" font-size="12" fill="#64748b">Last sync: 2026-06-23 09:30 UTC</text>
  <rect x="44" y="240" width="250" height="8" rx="4" fill="#334155"/>
  <rect x="44" y="240" width="246" height="8" rx="4" fill="#38bdf8"/>
  <!-- Health Cards Row -->
  <rect x="334" y="130" width="290" height="160" rx="8" fill="#1e293b"/>
  <text x="354" y="162" font-family="Inter, system-ui, sans-serif" font-size="14" font-weight="600" fill="#f8fafc">Pipeline Health</text>
  <circle cx="370" cy="210" r="28" fill="none" stroke="#22c55e" stroke-width="5" opacity="0.3"/>
  <path d="M370 182 a28 28 0 0 1 28 28" fill="none" stroke="#22c55e" stroke-width="5" stroke-linecap="round"/>
  <text x="354" y="260" font-family="Inter, system-ui, sans-serif" font-size="12" fill="#64748b">All systems operational</text>
  <rect x="644" y="130" width="292" height="160" rx="8" fill="#1e293b"/>
  <text x="664" y="162" font-family="Inter, system-ui, sans-serif" font-size="14" font-weight="600" fill="#f8fafc">Active Models</text>
  <text x="664" y="210" font-family="Inter, system-ui, sans-serif" font-size="40" font-weight="700" fill="#a78bfa">4</text>
  <text x="710" y="210" font-family="Inter, system-ui, sans-serif" font-size="14" fill="#64748b"> / 4 deployed</text>
  <!-- Recent Activity -->
  <rect x="24" y="310" width="912" height="200" rx="8" fill="#1e293b"/>
  <text x="44" y="342" font-family="Inter, system-ui, sans-serif" font-size="14" font-weight="600" fill="#f8fafc">Recent Activity</text>
  <line x1="44" y1="358" x2="916" y2="358" stroke="#334155" stroke-width="1"/>
  <text x="44" y="386" font-family="monospace" font-size="12" fill="#94a3b8">09:30</text>
  <text x="120" y="386" font-family="Inter, system-ui, sans-serif" font-size="12" fill="#22c55e">DATA_SYNC</text>
  <text x="240" y="386" font-family="Inter, system-ui, sans-serif" font-size="12" fill="#e2e8f0">Daily market data refreshed (CN + US)</text>
  <text x="44" y="414" font-family="monospace" font-size="12" fill="#94a3b8">09:15</text>
  <text x="120" y="414" font-family="Inter, system-ui, sans-serif" font-size="12" fill="#38bdf8">TRAIN</text>
  <text x="240" y="414" font-family="Inter, system-ui, sans-serif" font-size="12" fill="#e2e8f0">LGBM model retrained — Sharpe 1.82</text>
  <text x="44" y="442" font-family="monospace" font-size="12" fill="#94a3b8">08:00</text>
  <text x="120" y="442" font-family="Inter, system-ui, sans-serif" font-size="12" fill="#a78bfa">BACKTEST</text>
  <text x="240" y="442" font-family="Inter, system-ui, sans-serif" font-size="12" fill="#e2e8f0">Walk-forward backtest completed — 36 months</text>
</svg>
