<svg xmlns="http://www.w3.org/2000/svg" width="1200" height="800" viewBox="0 0 1200 800">
  <rect width="1200" height="800" fill="#1a1a2e"/>
  <rect x="50" y="50" width="1100" height="700" rx="8" fill="#16213e"/>
  <text x="600" y="120" text-anchor="middle" fill="#e2e8f0" font-family="sans-serif" font-size="36" font-weight="bold">Model Registry</text>
  <rect x="80" y="170" width="1040" height="60" rx="4" fill="#1e3a5f"/>
  <text x="120" y="208" fill="#94a3b8" font-family="sans-serif" font-size="14" font-weight="bold">Version</text>
  <text x="350" y="208" fill="#94a3b8" font-family="sans-serif" font-size="14" font-weight="bold">Market</text>
  <text x="450" y="208" fill="#94a3b8" font-family="sans-serif" font-size="14" font-weight="bold">Sharpe</text>
  <text x="550" y="208" fill="#94a3b8" font-family="sans-serif" font-size="14" font-weight="bold">Return</text>
  <text x="650" y="208" fill="#94a3b8" font-family="sans-serif" font-size="14" font-weight="bold">Snapshot</text>
  <text x="850" y="208" fill="#94a3b8" font-family="sans-serif" font-size="14" font-weight="bold">Run</text>
  <text x="1000" y="208" fill="#94a3b8" font-family="sans-serif" font-size="14" font-weight="bold">Stage</text>
  <rect x="80" y="240" width="1040" height="80" rx="4" fill="#1e293b"/>
  <text x="120" y="275" fill="#e2e8f0" font-family="sans-serif" font-size="16" font-weight="bold">Release Candidate 42</text>
  <text x="120" y="300" fill="#64748b" font-family="monospace" font-size="12">artifact-release-42</text>
  <text x="350" y="285" fill="#60a5fa" font-family="monospace" font-size="14">CN</text>
  <text x="450" y="285" fill="#22c55e" font-family="monospace" font-size="14">1.42</text>
  <text x="550" y="285" fill="#22c55e" font-family="monospace" font-size="14">18.00%</text>
  <text x="650" y="285" fill="#94a3b8" font-family="monospace" font-size="12">snapshot-cn-20260620</text>
  <text x="850" y="285" fill="#94a3b8" font-family="monospace" font-size="12">run-release-42</text>
  <rect x="990" y="265" width="80" height="24" rx="4" fill="#1e40af"/>
  <text x="1030" y="282" text-anchor="middle" fill="#93c5fd" font-family="sans-serif" font-size="12" font-weight="bold">STAGING</text>
  <rect x="80" y="330" width="1040" height="80" rx="4" fill="#1e293b"/>
  <text x="120" y="365" fill="#e2e8f0" font-family="sans-serif" font-size="16" font-weight="bold">Baseline Comparator</text>
  <text x="120" y="390" fill="#64748b" font-family="monospace" font-size="12">artifact-baseline-01</text>
  <text x="350" y="375" fill="#60a5fa" font-family="monospace" font-size="14">CN</text>
  <text x="450" y="375" fill="#f59e0b" font-family="monospace" font-size="14">0.88</text>
  <text x="550" y="375" fill="#f59e0b" font-family="monospace" font-size="14">11.00%</text>
  <text x="650" y="375" fill="#94a3b8" font-family="monospace" font-size="12">snapshot-cn-20260620</text>
  <text x="850" y="375" fill="#94a3b8" font-family="monospace" font-size="12">run-baseline-01</text>
  <rect x="990" y="355" width="80" height="24" rx="4" fill="#1e40af"/>
  <text x="1030" y="372" text-anchor="middle" fill="#93c5fd" font-family="sans-serif" font-size="12" font-weight="bold">STAGING</text>
</svg>
